<?xml version="1.0" encoding="UTF-8" standalone="no"?>
<!-- Created with Inkscape (http://www.inkscape.org/) -->

<svg
   version="1.1"
   id="svg2911"
   width="512"
   height="512"
   viewBox="0 0 512 512"
   sodipodi:docname="charge-green.svg"
   inkscape:version="1.2.2 (732a01da63, 2022-12-09)"
   xmlns:inkscape="http://www.inkscape.org/namespaces/inkscape"
   xmlns:sodipodi="http://sodipodi.sourceforge.net/DTD/sodipodi-0.dtd"
   xmlns="http://www.w3.org/2000/svg"
   xmlns:svg="http://www.w3.org/2000/svg">
  <defs
     id="defs2915" />
  <sodipodi:namedview
     id="namedview2913"
     pagecolor="#505050"
     bordercolor="#eeeeee"
     borderopacity="1"
     inkscape:showpageshadow="0"
     inkscape:pageopacity="0"
     inkscape:pagecheckerboard="0"
     inkscape:deskcolor="#505050"
     showgrid="false"
     inkscape:zoom="1.6855469"
     inkscape:cx="123.69873"
     inkscape:cy="256.29664"
     inkscape:window-width="1920"
     inkscape:window-height="1017"
     inkscape:window-x="1272"
     inkscape:window-y="-8"
     inkscape:window-maximized="1"
     inkscape:current-layer="g2917" />
  <g
     inkscape:groupmode="layer"
     inkscape:label="Image"
     id="g2917">
    <path
       style="fill:#00ce05;fill-opacity:1"
       d="m 203.39859,509.50717 c -4.09144,-2.45253 -7.36282,-7.96649 -7.36282,-12.41016 0,-1.0277 10.125,-41.98873 22.5,-91.02452 12.375,-49.03579 22.5,-89.36083 22.5,-89.61122 0,-0.25038 -27.69293,-0.45524 -61.53984,-0.45524 -59.70351,0 -61.6576,-0.0601 -65.48654,-2.01346 -4.51013,-2.3009 -7.98041,-8.05305 -7.96157,-13.1967 0.007,-1.80941 1.12574,-5.23793 2.48694,-7.61892 1.36119,-2.381 42.85064,-68.48298 92.19877,-146.89328 C 285.72247,11.242929 290.67057,3.6226516 294.49659,1.8847176 c 5.33761,-2.42455701 8.93896,-2.34399701 13.65294,0.305408 3.97021,2.231384 7.88624,8.4346404 7.88624,12.4923404 0,1.124741 -10.125,42.170495 -22.5,91.212784 -12.375,49.04229 -22.5,89.37997 -22.5,89.63929 0,0.25932 27.69293,0.47149 61.53984,0.47149 59.70351,0 61.6576,0.0601 65.48654,2.01346 2.54028,1.29595 4.66421,3.41988 5.96016,5.96016 2.35782,4.6217 2.52963,7.85524 0.65571,12.34016 -1.1206,2.68199 -169.31886,270.73477 -180.30148,287.34135 -5.45447,8.24759 -13.31646,10.43852 -20.97795,5.84601 z m 105.41381,-196.00114 54.80219,-87 -58.58442,-0.5 c -54.28804,-0.46333 -58.78629,-0.63232 -61.33715,-2.30433 -3.9511,-2.58983 -6.6524,-7.55631 -6.63332,-12.19567 0.009,-2.2 5.84184,-27.15304 12.96174,-55.4512 7.1199,-28.29815 12.84831,-51.5414 12.7298,-51.65166 -0.11851,-0.11026 -25.8847,40.59277 -57.25821,90.45119 l -57.04275,90.65167 58.58775,0.5 c 54.29126,0.46333 58.78963,0.63232 61.34049,2.30433 3.87768,2.54171 6.64913,7.53873 6.65351,11.99653 0.002,2.09048 -5.61858,26.16548 -12.49029,53.5 -6.87172,27.33453 -12.74919,50.82414 -13.06105,52.19914 -0.43526,1.91909 0.0251,1.57054 1.98125,-1.5 1.40155,-2.2 27.20926,-43.15 57.35046,-91 z"
       id="path3038" />
  </g>
</svg>
