<?xml version="1.0" encoding="UTF-8" standalone="no"?>
<!-- Created with Inkscape (http://www.inkscape.org/) -->

<svg
   version="1.1"
   id="svg393"
   width="682.66669"
   height="682.66669"
   viewBox="0 0 682.66669 682.66669"
   sodipodi:docname="thermometer-blue.svg"
   inkscape:version="1.2.2 (732a01da63, 2022-12-09)"
   xmlns:inkscape="http://www.inkscape.org/namespaces/inkscape"
   xmlns:sodipodi="http://sodipodi.sourceforge.net/DTD/sodipodi-0.dtd"
   xmlns="http://www.w3.org/2000/svg"
   xmlns:svg="http://www.w3.org/2000/svg">
  <defs
     id="defs397" />
  <sodipodi:namedview
     id="namedview395"
     pagecolor="#505050"
     bordercolor="#eeeeee"
     borderopacity="1"
     inkscape:showpageshadow="0"
     inkscape:pageopacity="0"
     inkscape:pagecheckerboard="0"
     inkscape:deskcolor="#505050"
     showgrid="false"
     inkscape:zoom="1.2641601"
     inkscape:cx="295.45308"
     inkscape:cy="388.40017"
     inkscape:window-width="1920"
     inkscape:window-height="1017"
     inkscape:window-x="1272"
     inkscape:window-y="-8"
     inkscape:window-maximized="1"
     inkscape:current-layer="g399" />
  <g
     inkscape:groupmode="layer"
     inkscape:label="Image"
     id="g399">
    <path
       style="fill:#005fce;fill-opacity:1;stroke-width:1.33333"
       d="m 285.40838,681.72502 c -1.83333,-0.31394 -7.53333,-1.24851 -12.66666,-2.07686 -46.12178,-7.44242 -91.4319,-40.53754 -113.38941,-82.82116 -12.09034,-23.28239 -17.35647,-42.27596 -18.76712,-67.68823 -1.56579,-28.20719 4.75209,-56.78396 18.26811,-82.62955 8.61863,-16.48067 16.73976,-27.18653 31.77184,-41.88389 l 12.11657,-11.84678 V 238.71051 c 0,-137.78347 0.22918,-154.993099 2.16816,-162.819905 7.71854,-31.156 30.74487,-57.45191 60.49851,-69.0888437 13.25175,-5.1828844 19.13058,-6.20316195 36,-6.24783535 13.78436,-0.036504 18.39606,0.49287075 26.66667,3.06105615 32.49652,10.0907929 56.42794,33.0547019 67.58964,64.8571039 l 3.7437,10.666667 0.35994,156.924157 0.35994,156.92414 13.77841,13.74253 c 24.75991,24.69541 39.07246,51.20911 45.72758,84.70935 3.08029,15.50547 3.02946,46.27207 -0.10027,60.72303 -14.06531,64.94279 -62.16103,113.31184 -126.34205,127.06006 -9.44141,2.02244 -40.95082,3.67297 -47.7835,2.503 z m 48.37579,-43.81268 c 42.35111,-12.48982 73.79651,-44.54409 85.12532,-86.77357 4.2127,-15.70325 4.2333,-43.66096 0.0437,-59.24423 -7.43179,-27.64252 -23.51627,-51.88828 -44.77972,-67.501 -14.9133,-10.95005 -13.33559,8.88597 -14.09846,-177.25478 C 359.40923,84.677684 359.40477,84.463291 356.55209,77.513149 340.24088,37.773386 290.41006,27.350434 259.82234,57.280503 c -9.34565,9.144718 -15.11161,20.616642 -17.01765,33.85825 -0.84026,5.837318 -1.35338,67.707697 -1.3699,165.175447 l -0.0264,155.84211 -5.75224,5.49123 c -3.16373,3.02017 -10.15569,9.36445 -15.53767,14.09839 -11.5051,10.11976 -19.68718,20.79083 -26.84948,35.01705 -33.76381,67.06394 1.19587,148.61931 73.01906,170.34186 14.88599,4.50219 21.20887,5.2694 39.12033,4.74687 12.99063,-0.37899 19.24926,-1.24787 28.37579,-3.93937 z m -49.53464,-37.40545 c -24.43751,-5.55993 -45.7366,-22.64464 -56.25652,-45.12518 -19.64835,-41.98755 -0.16084,-91.37311 43.08204,-109.17922 l 10.33333,-4.25495 V 307.74032 173.53312 l 3,-4.40792 c 4.94711,-7.2688 9.6781,-9.99916 17.13388,-9.88833 7.10526,0.1056 11.60163,2.5879 16.4504,9.0817 2.72862,3.65434 2.75167,4.68611 3.101,138.76202 l 0.35196,135.0803 8.08771,3.02461 c 40.4926,15.14322 62.55723,61.37044 48.55786,101.73274 -8.46988,24.41999 -28.57512,44.15457 -52.66243,51.69159 -11.39492,3.56552 -30.06544,4.42564 -41.17923,1.89706 z m 31.33392,-40.88146 c 9.66104,-3.61466 18.07875,-11.35556 22.79764,-20.96464 3.05239,-6.21558 3.68918,-9.25883 3.66638,-17.52202 -0.0457,-16.58601 -8.20871,-29.65155 -23.0917,-36.96029 -6.24256,-3.0656 -9.27623,-3.7016 -17.54739,-3.67879 -16.49061,0.0455 -29.25018,7.83233 -37.09649,22.63908 -3.02053,5.70004 -3.53316,8.30993 -3.53547,18 -0.003,9.29587 0.55916,12.41199 3.12266,17.33334 10.43246,20.02796 31.56994,28.67909 51.68437,21.15332 z M 449.24866,355.22485 c -11.28373,-7.66748 -10.97587,-25.77425 0.5578,-32.80673 3.96281,-2.41628 6.92389,-2.60308 41.33481,-2.6077 40.84181,-0.005 42.0524,0.20349 47.78106,8.24864 6.38357,8.9649 2.8934,23.37595 -6.88618,28.43316 -3.11677,1.61175 -10.72509,1.97988 -40.91871,1.97988 h -37.09002 z m 0.96642,-79.31499 c -12.15128,-8.01068 -12.33833,-25.8988 -0.3483,-33.30905 4.30728,-2.66204 6.28364,-2.79538 41.43186,-2.79538 40.66807,0 41.89842,0.21322 47.62369,8.25363 6.38357,8.9649 2.8934,23.37594 -6.88618,28.43316 -3.11792,1.61233 -10.70959,1.97825 -40.89488,1.97109 -34.22811,-0.008 -37.36176,-0.20363 -40.92619,-2.55345 z m 0,-80.00001 c -12.15128,-8.01068 -12.33833,-25.8988 -0.3483,-33.30904 4.31036,-2.66394 6.27745,-2.79538 41.83514,-2.79538 36.50292,0 37.40743,0.0651 41.70715,3 9.3993,6.41585 11.7144,18.70433 5.23748,27.80032 -5.41996,7.61164 -6.96484,7.86717 -47.50528,7.85756 -34.22811,-0.008 -37.36176,-0.20363 -40.92619,-2.55346 z m 0,-80 c -12.06687,-7.95504 -12.29005,-26.247215 -0.40862,-33.491742 3.96573,-2.418048 6.92718,-2.603074 41.73809,-2.607704 36.67019,-0.0049 37.56324,0.05901 41.86452,2.995016 9.3993,6.415859 11.7144,18.70434 5.23748,27.80033 -5.41996,7.61164 -6.96484,7.86716 -47.50528,7.85756 -34.22811,-0.008 -37.36176,-0.20363 -40.92619,-2.55346 z"
       id="path520" />
  </g>
</svg>
